inDegrees=no
num_controls=7
num_derivatives=13
num_iterations=76
num_multipliers=7
num_parameters=0
num_slacks=7
num_states=26
objective=0.334235
objective_accelerations=0.036641
objective_balance=0.001247
objective_effort=0.027425
objective_height=0.267265
objective_ligament=0.001656
solver_duration=803.892684
status=Solve_Succeeded
success=true
DataType=double
version=3
OpenSimVersion=4.5
endheader
time	/jointset/ground_pelvis/pelvis_tilt/value	/jointset/ground_pelvis/pelvis_tx/value	/jointset/ground_pelvis/pelvis_ty/value	/jointset/hip_r/hip_flexion_r/value	/jointset/hip_r/hip_adduction_r/value	/jointset/hip_r/hip_rotation_r/value	/jointset/back/lumbar_extension/value	/jointset/patellofemoral_r/patellar_flexion_r/value	/jointset/knee_r/knee_flexion_r/value	/jointset/knee_r/knee_adduction_r/value	/jointset/knee_r/knee_rotation_r/value	/jointset/ankle_r/ankle_angle_r/value	/jointset/subtalar_r/subtalar_angle_r/value	/jointset/ground_pelvis/pelvis_tilt/speed	/jointset/ground_pelvis/pelvis_tx/speed	/jointset/ground_pelvis/pelvis_ty/speed	/jointset/hip_r/hip_flexion_r/speed	/jointset/hip_r/hip_adduction_r/speed	/jointset/hip_r/hip_rotation_r/speed	/jointset/back/lumbar_extension/speed	/jointset/patellofemoral_r/patellar_flexion_r/speed	/jointset/knee_r/knee_flexion_r/speed	/jointset/knee_r/knee_adduction_r/speed	/jointset/knee_r/knee_rotation_r/speed	/jointset/ankle_r/ankle_angle_r/speed	/jointset/subtalar_r/subtalar_angle_r/speed	/forceset/tau_hip_flexion_r	/forceset/tau_hip_adduction_r	/forceset/tau_hip_rotation_r	/forceset/tau_knee_flexion_r	/forceset/tau_ankle_angle_r	/forceset/tau_subtalar_angle_r	/forceset/tau_lumbar_extension	lambda_cid13_p0	lambda_cid14_p0	lambda_cid14_p1	lambda_cid14_p2	lambda_cid14_p3	lambda_cid14_p4	lambda_cid14_p5	/jointset/ground_pelvis/pelvis_tilt/accel	/jointset/ground_pelvis/pelvis_tx/accel	/jointset/ground_pelvis/pelvis_ty/accel	/jointset/hip_r/hip_flexion_r/accel	/jointset/hip_r/hip_adduction_r/accel	/jointset/hip_r/hip_rotation_r/accel	/jointset/back/lumbar_extension/accel	/jointset/patellofemoral_r/patellar_flexion_r/accel	/jointset/knee_r/knee_flexion_r/accel	/jointset/knee_r/knee_adduction_r/accel	/jointset/knee_r/knee_rotation_r/accel	/jointset/ankle_r/ankle_angle_r/accel	/jointset/subtalar_r/subtalar_angle_r/accel	gamma_cid13_p0	gamma_cid14_p0	gamma_cid14_p1	gamma_cid14_p2	gamma_cid14_p3	gamma_cid14_p4	gamma_cid14_p5
0	-0.01383383183603832	0.13532442684891	0.9320810462579707	0.1934211968871041	-0.2421738870099068	-0.2324599771452318	-0.2903787966825928	0.2311786273363386	0.2311786273363406	0.1635807173250863	0.1728340187816869	0.089344008118978	0.04641843389213714	0	0	0	0	0	0	0	0	0	0	0	0	0	0.1019353957916633	-0.04695504150479147	0.008555714475615128	-0.2396817868008706	0.1130765838989917	-0.134105739206973	-0.02488801952601985	-30.02275903774412	-11.99401148741015	-54.83836099818127	2.877975082711683	5.224353031350231	-610.9696179058936	16.88809618241459	-2.056970331307715	-1.929082863605046	-0.8330436620840895	10.26781717330306	0.08803211224212107	2.536290105819886	-6.236680606802901	10.11542517544812	10.115425175451	-2.705570989963673	0.2697333938143077	2.64123415885272	0.8006651132664279	6.896447681910822e-08	4.990851989281896e-08	-4.60154567564635e-07	2.783229490230846e-07	1.149614669554211e-08	1.929661603790913e-07	-3.539426090586484e-07
0.01	-0.01393114559291417	0.1352305542544464	0.9320405023055055	0.1939209928456776	-0.2421678629139764	-0.2323304254067312	-0.290692226041366	0.2316753634778619	0.2316753634778653	0.1634446280375833	0.172841329134737	0.0894760108738161	0.04646041324531606	-0.01943916494726124	-0.01853883057076124	-0.008095458582059534	0.09940783361767996	0.001147910907280348	0.02582433917229038	-0.06228381916195425	0.09894501202820505	0.09894501202820868	-0.02698328147492063	0.001451023593290073	0.02647576837150619	0.008348916221216682	0.1036562293933839	-0.0680741712188747	0.007987586230155509	-0.2485011320000871	0.1243152383490654	-0.1207384331764665	-0.02486173361972785	-30.02727261808069	-7.717880423272699	-48.1852198018367	1.704198238353446	-0.02603053694740034	-612.2923586744539	31.65452617665519	-1.883852500779438	-1.780927606186496	-0.7957585763947208	9.694564724562424	0.1196118001804142	2.592663974941029	-6.163924682060606	9.72369298208927	9.723692982088023	-2.65956842037213	0.08118694570293085	2.66204265806253	0.844921725240942	9.256045875211577e-08	4.021328488133122e-08	-6.156589157176478e-07	3.424601582127497e-07	3.96698640188105e-08	6.492351452521256e-08	-4.665550317167335e-07
0.02	-0.01422214358413062	0.1349583644638003	0.9319194114431942	0.195398326794141	-0.2421520714649325	-0.2319451986461051	-0.2916164320139919	0.233149480492786	0.2331494804927865	0.1630457335964947	0.172862829744442	0.0898750302087233	0.04658446513044542	-0.03873684686829161	-0.03566343923648261	-0.01610938196920802	0.1955075979778423	0.001953470622941181	0.05113500442487901	-0.1221553227706708	0.1954761746797133	0.195476174679706	-0.0525610307144744	0.00283805133124144	0.05340331601353121	0.01641450639009901	0.1053770629951048	-0.08919330093296692	0.00741945798469037	-0.2573204771993032	0.1355538927991352	-0.1073711271459719	-0.02483544771343324	-30.04042885001408	-3.362219296741773	-41.54128372792908	0.5583125313308689	-5.212792092037251	-612.3133856484608	46.12053156718032	-2.028673726061582	-1.646238482597037	-0.8167366231018826	9.606203321799534	0.01956187391821933	2.433555321879541	-5.754217496155386	9.632655300108746	9.632655300108734	-2.424464542890305	0.2569342227465589	2.731590012956527	0.74399990279957	1.161564406851233e-07	3.051804986984348e-08	-7.711632638706607e-07	4.065973674024147e-07	6.78435813420789e-08	-6.311913132866617e-08	-5.791674543748186e-07
0.03	-0.01470516107417994	0.1345203583230224	0.9317183991777505	0.1978215484184002	-0.2421297456570848	-0.2313110544444746	-0.2931267320875738	0.2355762879665588	0.2355762879665588	0.1623979149756609	0.1728989822561099	0.09054313378534756	0.04678736126389775	-0.05777815140532909	-0.05186543614134474	-0.02409116552186417	0.2886843818380384	0.002495745455334478	0.0755877700826227	-0.1794903191513886	0.2894048220516781	0.2894048220516676	-0.07681553855415191	0.004337402735344594	0.08005539597927014	0.02410500802557984	0.09930380581047699	-0.09136330311000418	0.008345302035328577	-0.2507448201448451	0.1255814191824954	-0.1010325513550815	-0.01988455878376502	-30.06169709515134	-6.252638189513554	-39.15724245016452	0.02141294553566262	-3.882864246250374	-612.7214778630586	50.00498210238786	-1.828576406224934	-1.596313695108748	-0.7886265228727558	9.105569472346756	0.06913471855890728	2.435315594883008	-5.660984789945825	9.200871425604944	9.200871425604515	-2.397952669667147	0.08826254672302754	2.607732804977217	0.772545150244332	1.329801738960445e-07	3.123520206376933e-08	-8.489466914109269e-07	4.807943071649531e-07	7.961619487080297e-08	-1.349919025574979e-07	-6.630701930023381e-07
0.04	-0.01537593512733957	0.1339225055330603	0.9314376236164752	0.2011629685921066	-0.2421024822147834	-0.2304355469048347	-0.2951979509411456	0.238927962308025	0.2389279623080241	0.1615131495233969	0.1729484936713155	0.09147290132494849	0.04706535638496923	-0.07628815949037544	-0.06763276907329362	-0.03206204113551353	0.3791473078669221	0.002940997514089805	0.09940767202681693	-0.2343390787687455	0.380449548218227	0.3804495482182145	-0.09995039700025546	0.005509832038679323	0.105736108608795	0.03143430391394022	0.09323054862586638	-0.09353330528704322	0.009271146085973247	-0.2441691630903796	0.1156089455658572	-0.09469397556419276	-0.01493366985408415	-30.08989778413258	-9.069824149310211	-36.77927273364809	-0.4929352617664913	-2.506829590641935	-611.9469920770686	53.61954249190249	-1.922414435663399	-1.559305688014349	-0.814555035300527	9.063431755537056	0.0001573191906245083	2.306982579169661	-5.256970143483231	9.05587105902559	9.055871059025776	-2.200534664175509	0.1915498025928644	2.537316545713754	0.671758753375489	1.496642731126958e-07	3.21670426536831e-08	-9.251276257426831e-07	5.551986640527055e-07	9.105064131097975e-08	-2.057065320414833e-07	-7.463809793818045e-07
0.05	-0.01622970831168151	0.1331693280104591	0.9310769072714862	0.2053962393480141	-0.2420712835483613	-0.2293263266594288	-0.2978050427810373	0.2431765142900624	0.2431765142900629	0.1604025303372667	0.173009426339786	0.0926551047316255	0.0474149723786976	-0.09438269361859239	-0.08291072399880646	-0.04009923002372581	0.4670547250936435	0.003283974676295221	0.1222986429098459	-0.2866999909953268	0.4688144311435739	0.4688144311435881	-0.1219859666104448	0.006644275020021365	0.1305795769581696	0.03844287092190386	0.08784261388263075	-0.08654375054652871	0.009913707429228891	-0.2400313136692226	0.1112557650424369	-0.09617699906750342	-0.01050050379314596	-30.12379262109711	-10.47789239771931	-37.74178868503702	-0.2573615568510502	-2.114998808641133	-611.304427327393	50.19930030418139	-1.74039197356929	-1.498220374960282	-0.8010428525431743	8.586587556957291	0.04912868996940353	2.259610523112555	-5.16875703017181	8.659804284729749	8.65980428473352	-2.177037474924344	0.06963959076668133	2.439131205565925	0.7084226906229608	1.452714757373522e-07	2.889150753152263e-08	-8.506983756738576e-07	5.715243634103668e-07	8.868787720577164e-08	-2.554467352980588e-07	-7.298482489609898e-07
